<svg xmlns:dc="http://purl.org/dc/elements/1.1/" xmlns:cc="http://creativecommons.org/ns#" xmlns:rdf="http://www.w3.org/1999/02/22-rdf-syntax-ns#" xmlns:svg="http://www.w3.org/2000/svg" xmlns="http://www.w3.org/2000/svg" viewBox="0 0 50 50" preserveAspectRatio="xMidYMid meet"><metadata><rdf:RDF><cc:Work><dc:format>image/svg+xml</dc:format><dc:type rdf:resource="http://purl.org/dc/dcmitype/StillImage"/><dc:title>Jdenticon</dc:title><dc:creator><cc:Agent><dc:title>Daniel Mester Pirttijärvi</dc:title></cc:Agent></dc:creator><dc:source>https://github.com/dmester/jdenticon</dc:source><cc:license rdf:resource="https://github.com/dmester/jdenticon/blob/master/LICENSE"/></cc:Work></rdf:RDF></metadata><mask id="avatarsRadiusMask"><rect width="50" height="50" rx="0" ry="0" x="0" y="0" fill="#fff"/></mask><g mask="url(#avatarsRadiusMask)"><path fill="#e8e8e8" d="M25 13L13 13L13 1ZM25 13L25 1L37 1ZM25 37L37 37L37 49ZM25 37L25 49L13 49ZM13 25L1 25L1 13ZM37 25L37 13L49 13ZM37 25L49 25L49 37ZM13 25L13 37L1 37Z"/><path fill="#d17875" d="M3 7a4,4 0 1,1 8,0a4,4 0 1,1 -8,0M39 7a4,4 0 1,1 8,0a4,4 0 1,1 -8,0M39 43a4,4 0 1,1 8,0a4,4 0 1,1 -8,0M3 43a4,4 0 1,1 8,0a4,4 0 1,1 -8,0M16 16L24 16L24 24L16 24ZM34 16L34 24L26 24L26 16ZM34 34L26 34L26 26L34 26ZM16 34L16 26L24 26L24 34Z"/></g></svg>